<?xml version="1.0" standalone="no"?>
<!DOCTYPE svg PUBLIC "-//W3C//DTD SVG 20010904//EN"
 "http://www.w3.org/TR/2001/REC-SVG-20010904/DTD/svg10.dtd">
<svg version="1.0" xmlns="http://www.w3.org/2000/svg"
 width="200.000000pt" height="200.000000pt" viewBox="0 0 200.000000 200.000000"
 preserveAspectRatio="xMidYMid meet">

<g transform="translate(0.000000,200.000000) scale(0.100000,-0.100000)"
fill="#000000" stroke="none">
<path d="M377 1300 c-42 -33 -78 -60 -80 -60 -3 0 -16 18 -31 41 -34 51 -77
69 -166 69 l-70 0 0 -150 0 -150 78 0 c89 0 130 19 163 75 23 39 19 40 104
-25 33 -26 68 -50 77 -53 12 -4 44 13 98 53 44 33 82 60 85 60 3 0 5 -25 5
-55 l0 -55 90 0 c89 0 90 0 90 25 0 24 -3 25 -60 25 l-60 0 0 125 0 125 -35 0
-35 0 0 -58 c0 -42 -5 -61 -17 -72 -80 -68 -137 -110 -148 -110 -7 0 -18 6
-24 14 -10 12 2 25 63 73 42 32 76 63 76 68 0 6 -8 15 -18 22 -16 9 -30 2 -93
-48 -79 -63 -90 -67 -109 -45 -11 14 16 40 125 120 16 12 17 16 6 30 -7 9 -19
16 -26 16 -7 0 -47 -27 -88 -60z m-178 -37 c29 -36 36 -68 21 -103 -17 -40
-53 -62 -98 -58 l-37 3 -3 79 c-2 44 -1 85 2 93 3 8 22 13 50 13 36 0 48 -5
65 -27z"/>
<path d="M860 1200 l0 -150 90 0 c89 0 90 0 90 25 0 22 -4 24 -57 27 l-58 3
-3 123 -3 122 -29 0 -30 0 0 -150z"/>
<path d="M1122 1320 c0 -14 2 -19 5 -12 2 6 2 18 0 25 -3 6 -5 1 -5 -13z"/>
<path d="M1640 1321 c0 -5 7 -11 14 -14 10 -4 13 -1 9 9 -6 15 -23 19 -23 5z"/>
<path d="M1379 1283 c-4 -93 -3 -197 3 -206 4 -7 8 41 8 106 0 64 -2 117 -5
117 -3 0 -5 -8 -6 -17z"/>
<path d="M1121 1274 c0 -11 3 -14 6 -6 3 7 2 16 -1 19 -3 4 -6 -2 -5 -13z"/>
<path d="M1122 1213 c0 -28 2 -33 8 -18 6 17 3 55 -5 55 -2 0 -3 -17 -3 -37z"/>
<path d="M1420 1246 c0 -2 8 -10 18 -17 15 -13 16 -12 3 4 -13 16 -21 21 -21
13z"/>
<path d="M1735 1191 c-3 -5 -2 -12 3 -15 5 -3 9 1 9 9 0 17 -3 19 -12 6z"/>
<path d="M1121 1154 c0 -11 3 -14 6 -6 3 7 2 16 -1 19 -3 4 -6 -2 -5 -13z"/>
<path d="M1121 1114 c0 -11 3 -14 6 -6 3 7 2 16 -1 19 -3 4 -6 -2 -5 -13z"/>
<path d="M1493 1094 c9 -11 14 -24 10 -28 -4 -4 1 -4 10 0 10 3 17 7 15 8 -2
1 -14 10 -28 21 l-25 20 18 -21z"/>
<path d="M1653 1095 c0 -8 4 -12 9 -9 5 3 6 10 3 15 -9 13 -12 11 -12 -6z"/>
<path d="M1121 1074 c0 -11 3 -14 6 -6 3 7 2 16 -1 19 -3 4 -6 -2 -5 -13z"/>
<path d="M759 953 c-54 -8 -64 -34 -64 -158 0 -167 -23 -155 307 -155 l268 0
0 23 c0 45 -11 47 -251 47 -182 0 -229 3 -238 14 -14 16 -19 125 -7 144 5 9
66 12 239 12 128 0 238 4 245 9 8 5 12 21 10 37 l-3 29 -240 1 c-132 1 -252
-1 -266 -3z"/>
<path d="M17 943 c-4 -3 -7 -75 -7 -160 l0 -153 284 0 c283 0 285 0 292 22 14
44 -12 49 -259 47 -231 -1 -256 2 -244 35 6 14 38 16 245 16 172 0 241 3 250
12 16 16 15 47 0 53 -7 2 -121 6 -253 7 l-240 3 -3 23 c-2 12 -2 23 0 24 2 1
115 5 253 8 230 5 250 6 253 23 9 45 -4 47 -293 47 -149 0 -275 -3 -278 -7z"/>
<path d="M1444 928 c-42 -20 -56 -86 -30 -137 24 -45 74 -54 283 -50 187 4
213 0 200 -35 -5 -13 -41 -16 -249 -18 l-243 -3 -3 -27 c-3 -22 2 -29 20 -33
13 -3 132 -5 265 -3 237 3 243 4 265 26 32 31 31 113 0 145 -22 21 -32 22
-245 27 -214 5 -222 6 -222 25 0 19 8 20 239 25 205 4 240 7 249 21 6 9 7 24
4 33 -6 14 -34 16 -259 15 -152 0 -261 -4 -274 -11z"/>
</g>
</svg>
