<?xml version="1.0" standalone="no"?>
<!DOCTYPE svg PUBLIC "-//W3C//DTD SVG 20010904//EN"
 "http://www.w3.org/TR/2001/REC-SVG-20010904/DTD/svg10.dtd">
<svg version="1.0" xmlns="http://www.w3.org/2000/svg"
 width="997.000000pt" height="1024.000000pt" viewBox="0 0 997.000000 1024.000000"
 preserveAspectRatio="xMidYMid meet">

<g transform="translate(0.000000,1024.000000) scale(0.100000,-0.100000)"
fill="#000000" stroke="none">
<path d="M6194 10216 c-17 -8 -78 -44 -135 -82 -57 -37 -160 -102 -229 -144
-244 -151 -585 -372 -613 -398 -15 -14 -38 -48 -52 -76 l-25 -50 0 -787 0
-787 243 -125 c133 -68 382 -197 554 -286 172 -88 314 -161 318 -161 3 0 5
369 5 820 0 616 3 820 12 820 6 0 333 -167 727 -371 394 -204 851 -441 1016
-527 559 -288 720 -375 749 -401 16 -14 39 -48 52 -76 l24 -50 0 -1492 c0
-1339 -2 -1493 -15 -1493 -9 0 -147 69 -308 153 -161 85 -353 184 -427 222
-74 37 -187 96 -250 130 -63 34 -188 99 -277 144 l-163 81 0 -649 0 -649 158
-83 c86 -46 204 -106 262 -135 58 -28 195 -100 305 -159 110 -59 243 -129 295
-154 52 -26 150 -75 218 -110 l123 -63 77 4 77 3 134 85 c74 47 209 133 300
192 91 59 244 155 340 215 96 59 189 123 207 142 19 18 43 58 54 88 20 53 20
70 20 2146 -1 1722 -3 2099 -14 2130 -30 82 -50 96 -369 266 -167 88 -306 161
-310 161 -4 0 -93 46 -199 102 -189 99 -439 229 -1028 533 -162 83 -477 246
-700 362 -416 216 -592 307 -857 444 -139 73 -157 79 -210 79 -32 -1 -72 -7
-89 -14z"/>
<path d="M2628 7834 c-60 -32 -58 -3 -58 -826 l0 -753 178 -89 c97 -49 211
-108 252 -131 41 -23 210 -111 375 -195 165 -83 306 -157 313 -162 9 -8 12
157 12 823 l0 834 -498 258 c-274 141 -509 257 -522 257 -14 -1 -37 -7 -52
-16z"/>
<path d="M5142 5908 l3 -685 30 -49 c17 -27 44 -57 60 -67 37 -24 382 -204
753 -394 l282 -144 0 671 0 671 -25 48 c-40 81 -20 68 -655 396 -157 81 -322
167 -368 192 l-82 45 2 -684z"/>
<path d="M63 6210 c-13 -5 -32 -24 -43 -42 -20 -33 -20 -50 -20 -2098 0 -1392
3 -2077 10 -2102 6 -21 25 -57 43 -80 34 -44 148 -108 622 -349 88 -45 234
-121 325 -169 91 -48 273 -142 405 -210 132 -68 296 -153 365 -190 69 -37 168
-88 220 -115 95 -47 444 -228 930 -480 752 -390 687 -364 753 -306 l32 29 3
589 2 588 -192 97 c-106 54 -339 173 -518 266 -179 93 -480 248 -670 346 -190
98 -349 182 -355 186 -5 4 -136 72 -290 150 -491 251 -489 250 -530 335 l-25
51 2 1502 3 1502 -60 25 c-33 15 -103 50 -155 80 -52 29 -210 111 -350 183
-140 71 -294 150 -343 176 -87 46 -121 53 -164 36z"/>
<path d="M2570 4297 c0 -477 3 -674 12 -698 6 -19 24 -52 39 -75 25 -37 61
-58 356 -211 180 -94 414 -215 518 -269 105 -55 196 -100 203 -102 9 -3 12
133 12 655 -1 710 0 693 -55 773 -26 38 -140 101 -735 407 -74 39 -183 96
-242 127 l-108 58 0 -665z"/>
<path d="M4830 3002 l0 -648 28 -16 c15 -9 153 -81 307 -161 154 -79 434 -223
622 -321 384 -198 400 -203 454 -145 l29 31 0 583 0 583 -77 39 c-100 50 -646
333 -913 473 -113 59 -260 135 -327 169 l-123 61 0 -648z"/>
</g>
</svg>
